<?xml version="1.0" encoding="UTF-8"?>
<svg xmlns="http://www.w3.org/2000/svg" version="1.1" viewBox="0 0 513.5 628.85">
    <defs>
        <style>
            .cls-1 {
                fill: #d9333f;
            }
        </style>
    </defs>
    <!-- Generator: Adobe Illustrator 28.6.0, SVG Export Plug-In . SVG Version: 1.2.0 Build 709)  -->
    <g>
        <g id="_レイヤー_1" data-name="レイヤー_1">
            <g>
                <path class="cls-1"
                    d="M142.9,542.63c0,24.5-17.88,42.38-41.72,42.38s-42.38-17.88-42.38-42.38,17.88-41.72,42.38-41.72,41.72,17.88,41.72,41.72ZM143.56,92.06c0,21.85,0,326.48,0,346.35,0,23.18-11.92,41.06-43.04,41.06-27.15,0-41.71-15.23-41.71-42.38,0-20.53,0-323.17,0-341.71,0-21.19,12.58-39.07,40.4-39.07,33.77,0,44.37,15.23,44.37,35.76ZM349.97,542.63c0,24.5-17.88,42.38-41.72,42.38s-42.38-17.88-42.38-42.38,17.88-41.72,42.38-41.72,41.72,17.88,41.72,41.72Z" />
                <path class="cls-1"
                    d="M265.87,437.78c0-64.24,2.66-76.92,18.17-103.97,11.26-19.65,26.08-32.97,64.05-61.01,28.02-20.69,34.08-37.14,33.29-71.66-1.02-45.02-31.62-64.38-61.11-64.38-58.94,0-71.16,49.57-76.38,61.73-10.79,22.56-40.48,26.81-56.24,19.7-17.26-7.79-26.36-29.22-21.12-48.21,8.44-30.6,20.9-51.8,39.47-69.67,26.77-25.75,68.27-45,108.09-45,88.08,0,151.44,58.01,151.44,143.09,0,72.8-24.77,119.97-69.79,140.62-47.66,21.87-44.46,72.13-45.78,103.87-1.21,29.11-18.87,36.58-42.05,36.58s-42.05-11.88-42.05-41.68Z" />
            </g>
        </g>
    </g>
</svg>