<?xml version="1.0" encoding="UTF-8"?>
<svg xmlns="http://www.w3.org/2000/svg" version="1.1" viewBox="0 0 513.5 628.85">
    <defs>
        <style>
            .cls-1 {
                fill: #d9333f;
            }
        </style>
    </defs>
    <path class="cls-1"
        d="M 136.9 545.6 c 0 24.5 -17.9 42.4 -41.7 42.4 s -42.4 -17.9 -42.4 -42.4 s 17.9 -41.7 42.4 -41.7 s 41.7 17.9 41.7 41.7 Z" />
    <path class="cls-1"
        d="M 136.9 80.1 c 0 21.9 0 326.5 0 346.4 c 0 23.2 -11.9 41.1 -43 41.1 c -27.1 0 -41.7 -15.2 -41.7 -42.4 c 0 -20.5 0 -323.2 0 -341.7 c 0 -21.2 12.6 -39.1 40.4 -39.1 c 33.8 0 44.4 15.2 44.4 35.8 Z" />
    <path class=" cls-1"
        d="M 301.9 427.8 c 0 -64.2 2.7 -76.9 18.2 -104 c 11.3 -19.6 26.1 -33 64 -61 c 28 -20.7 34.1 -37.1 33.3 -71.7 c -1 -45 -31.6 -64.4 -61.1 -64.4 c -58.9 0 -71.2 49.6 -76.4 61.7 c -10.8 22.6 -40.5 26.8 -56.2 19.7 c -17.3 -7.8 -26.4 -29.2 -21.1 -48.2 c 8.4 -30.6 20.9 -51.8 39.5 -69.7 c 26.8 -25.8 68.3 -45 108.1 -45 c 88.1 0 151.4 58 151.4 143.1 c 0 72.8 -24.8 120 -69.8 140.6 c -47.7 21.9 -44.5 72.1 -45.8 103.9 c -1.2 29.1 -18.9 36.6 -42 36.6 s -42 -11.9 -42 -41.7 Z" />
    <path class="cls-1"
        d="M 383 542.6 c 0 24.5 -17.9 42.4 -41.7 42.4 s -42.4 -17.9 -42.4 -42.4 s 17.9 -41.7 42.4 -41.7 s 41.7 17.9 41.7 41.7 Z" />
</svg>